# xmcd
#
# Track frame offsets:
#	150
#	17123
#	35482
#	52621
#	66696
#	82560
#	96985
#	112047
#	128942
#	145851
#	158482
#	178816
#	193997
#	209791
#	224408
#
# Disc length: 3182
#
# Revision: 1
# Processed by: cddbd v1.5.1PL0 Copyright (c) Steve Scherf et al.
# Submitted via: VisiTrax 2.9.5.180 - For more info visit www.synapsa.com
# Normalized: r0:DSETVAR1
#
DISCID=df0c6c0f
DTITLE=Various Artist - CDX 209 March 1999
DYEAR=1999
DGENRE=
TTITLE0=Mary Chapin Carpenter - Almost home
TTITLE1=Lonestar - Amazed
TTITLE2=Nitty Gritty Dirt Band - Bang bang bang
TTITLE3=Wilkinsons - Boy oh boy
TTITLE4=Jon Randall - Cold coffee morning
TTITLE5=Sara Evans - Fool, I'm a woman
TTITLE6=Linda Davis - From the inside out
TTITLE7=Bill Engvall - Hollywood indian guides
TTITLE8=Diamond Rio - I know how the river feels
TTITLE9=Mandy Barnett - I've got a right to cry
TTITLE10=Tim McGraw - Please remember me
TTITLE11=Chely Wright - Single white female
TTITLE12=Dixie Chicks - Tonight the heartache's on me
TTITLE13=Chris Chitsey - At a time like this
TTITLE14=Beverly Ellis - This time a diamond won't cut it
EXTD=
EXTT0=
EXTT1=
EXTT2=
EXTT3=
EXTT4=
EXTT5=
EXTT6=
EXTT7=
EXTT8=
EXTT9=
EXTT10=
EXTT11=
EXTT12=
EXTT13=
EXTT14=
PLAYORDER=
